<svg xmlns="http://www.w3.org/2000/svg" viewBox="0 0 333333 333333" shape-rendering="geometricPrecision" text-rendering="geometricPrecision" image-rendering="optimizeQuality" fill-rule="evenodd" clip-rule="evenodd"><path d="M321885 37485c1824-356 3719-10 5294 950 2683 1108 4576 3746 4588 6830l1557 215877c128 2649-1170 5280-3605 6737l-88168 52591c-1247 941-2799 1499-4481 1499-410 0-813-33-1205-97L7072 296435c-3939-196-7072-3452-7072-7439V69464h12c-88-2939 1583-5776 4439-7033l114770-50452 6 13c1200-530 2555-748 3950-566l198707 26057zm-77367 65730v198198l73941-44106-1441-199789-72500 45696zm-14896 203004V105296l-97568-12450-3200 93250-34259-23336-34259 19364 7064-97528-52505-6700v204451l214727 23873zM214196 38336l-71964 40850 93606 11945 65609-41353-87250-11442zM76570 70807l69775-41369-23008-3017-88777 39025 42010 5361z" fill-rule="nonzero"/></svg>