<svg xmlns="http://www.w3.org/2000/svg" viewBox="0 0 333333 146659" shape-rendering="geometricPrecision" text-rendering="geometricPrecision" image-rendering="optimizeQuality" fill-rule="evenodd" clip-rule="evenodd"><path d="M50802 19696v-7624L9302 16028c-8008 904-9648-1861-9246-4768 1000-7251 4852-5550 10373-5261l40373 2030V2853c0-1569 1283-2852 2851-2852h2413c1569 0 2851 1283 2851 2852v5180l40442-3606c5521-289 9373-1989 10373 5261 400 2907-1239 5671-9246 4768l-41569-2390v7631h3015c2163 0 3931 1771 3931 3931v14156h201570V23732c0-2219 1816-4035 4035-4035h2878v-7624l-41499 3956c-8008 904-9648-1861-9246-4768 1000-7251 4852-5550 10373-5261l40372 2030V2854c0-1569 1283-2852 2852-2852h2413c1569 0 2852 1283 2852 2852v5180l40442-3606c5521-289 9374-1989 10373 5261 401 2907-1238 5671-9246 4768l-41569-2390v7631h3015c2163 0 3931 1771 3931 3931v14156h33972c4102 0 7457 3356 7457 7457 0 4102-3356 7457-7457 7457h-61225c-5699 8067-21928 11191-45758 10746 8143 7591 15998 16190 23392 26403 9842 13230 18102 27137 22697 42615 1606 17863-16405 14843-22234 11348-8546-1069-8541-14802-9233-27504-611-11220-1818-22053-10404-30277-4246-4066-10154-7549-18115-10310-1898 1807-4170 3454-6803 4945-12268 6948-55699 8852-65226-6103-5575 1650-10347 4152-14404 7426-16406 13235-15787 31689-16630 51864-2019 14021-32742 20746-30247-2239 497-4573 2586-8691 5466-12584 11334-22028 24475-41138 40679-55298-20789 450-36912-2600-45858-11033H7682c-4102 0-7457-3356-7457-7457 0-4102 3356-7457 7457-7457h36207V23732c0-2219 1815-4035 4035-4035h2878zm92518 38943h44423c1829 0 3328 1497 3328 3327 0 1831-1498 3328-3328 3328h-44423c-1829 0-3327-1497-3327-3328 0-1830 1498-3327 3327-3327z"/></svg>