<svg xmlns="http://www.w3.org/2000/svg" viewBox="0 0 3333 2410" shape-rendering="geometricPrecision" text-rendering="geometricPrecision" image-rendering="optimizeQuality" fill-rule="evenodd" clip-rule="evenodd"><path d="M191 0h2951c53 0 100 22 135 56 35 35 56 83 56 135v2028c0 40-12 77-33 107-4 10-10 19-18 27-5 5-11 9-18 13-33 28-76 45-122 45H191c-53 0-100-22-135-56-35-35-56-82-56-135V192C0 139 21 92 56 57S138 1 191 1zm-45 2139l1034-1037L146 259v1880zm1148-944L228 2264h2867L2076 1195l-336 286c-26 23-66 24-94 1l-353-287zm894-95l998 1047V250l-998 850zM240 147l1452 1184L3081 147H240z" fill-rule="nonzero"/></svg>