<svg xmlns="http://www.w3.org/2000/svg" width="64" height="64" shape-rendering="geometricPrecision" text-rendering="geometricPrecision" image-rendering="optimizeQuality" fill-rule="evenodd" clip-rule="evenodd" viewBox="0 0 640 640"><path d="M22.701 562.554h87.793V2.268c0-5.138 4.216.024 9.366.024h400.293c5.15 0 9.366-5.15 9.366-.024v560.286h87.792v77.458H22.702v-77.458zm268.114-256.728h60.603a3.32 3.32 0 0 1 3.32 3.307v73.76a3.322 3.322 0 0 1-3.32 3.32h-60.603a3.322 3.322 0 0 1-3.319-3.32v-73.76a3.32 3.32 0 0 1 3.32-3.307zm-6.46-235.798h71.303v56.575h56.576v71.316h-56.576v56.576h-71.304v-56.576H227.78v-71.316h56.575V70.028zm86.658-21.945H160.916c-3.685 0-6.744 3.626-6.744 8.02v473.51c0 4.393 3.047 8.02 6.744 8.02H479.097c3.697 0 6.744-3.615 6.744-8.02V56.103c0-4.406-3.059-8.02-6.744-8.02H371.013zM351.276 428.26h-1.57l-.166-.012h-59.068l-.177.012h-1.559a3.41 3.41 0 0 0-3.401 3.401v73.702c0 1.854 1.523 3.402 3.401 3.402H351.276a3.41 3.41 0 0 0 3.402-3.402v-73.702a3.402 3.402 0 0 0-3.402-3.401zm103.076-.012h-60.827c-1.854 0-3.402 1.535-3.402 3.413v73.702c0 1.854 1.536 3.402 3.402 3.402h60.827c1.867 0 3.414-1.536 3.414-3.402v-73.702c0-1.89-1.56-3.413-3.414-3.413zm0-122.222h-60.827c-1.854 0-3.402 1.535-3.402 3.402v73.678c0 1.89 1.536 3.425 3.402 3.425h60.827c1.867 0 3.414-1.524 3.414-3.402V309.43c0-1.878-1.56-3.402-3.414-3.402zM185.66 428.249h60.828c1.866 0 3.402 1.535 3.402 3.413v73.702c0 1.854-1.548 3.402-3.402 3.402H185.66c-1.854 0-3.413-1.536-3.413-3.402v-73.702a3.423 3.423 0 0 1 3.413-3.413zm0-122.222h60.828a3.418 3.418 0 0 1 3.402 3.402v73.678c0 1.89-1.548 3.425-3.402 3.425H185.66c-1.854 0-3.413-1.524-3.413-3.402V309.43c0-1.878 1.547-3.402 3.413-3.402z"/></svg>