<svg xmlns="http://www.w3.org/2000/svg" viewBox="0 0 333333 280599" shape-rendering="geometricPrecision" text-rendering="geometricPrecision" image-rendering="optimizeQuality" fill-rule="evenodd" clip-rule="evenodd"><path d="M188509 278787l-53423-50805-54880 49568c-1211 1318-2949 2144-4880 2144-3661 0-6628-2967-6628-6628V164847L2054 101469c-2645-2516-2750-6702-233-9347 852-895 1895-1499 3004-1809l-1-3L324930 247c3517-986 7169 1066 8156 4583 505 1799 214 3633-660 5127L198970 276948c-1630 3260-5595 4581-8855 2952-601-301-1136-680-1598-1120l-7 7zm-63015-59927l-43540-41406v80733l43540-39327zm-49143-64981L283394 25676 19589 99898l56762 53980zM310407 24483L86244 163286l104911 99770L310407 24482z" fill-rule="nonzero"/></svg>